<svg xmlns="http://www.w3.org/2000/svg" viewBox="0 0 32 32">
  <defs>
    <!-- Smooth radial gradient for professional glow effect -->
    <radialGradient id="glow" cx="50%" cy="50%" r="50%">
      <stop offset="0%" stop-color="#3b82f6" stop-opacity="0.4"/>
      <stop offset="100%" stop-color="#3b82f6" stop-opacity="0"/>
    </radialGradient>
  </defs>
  <!-- Background: Deep clinical dark slate -->
  <rect width="32" height="32" rx="8" fill="#0f172a"/>
  <!-- Ambient blue neon light glow -->
  <circle cx="16" cy="16" r="14" fill="url(#glow)"/>
  <!-- Elegant minimalist medical cross representing the rotating logo cross -->
  <path d="M14 7a1 1 0 0 1 1-1h2a1 1 0 0 1 1 1v7h7a1 1 0 0 1 1 1v2a1 1 0 0 1-1 1h-7v7a1 1 0 0 1-1 1h-2a1 1 0 0 1-1-1v-7H7a1 1 0 0 1-1-1v-2a1 1 0 0 1 1-1h7V7z" fill="#3b82f6"/>
  <!-- Circular radar-like tracking frame -->
  <circle cx="16" cy="16" r="13.5" fill="none" stroke="#1e293b" stroke-width="1" stroke-dasharray="2,2"/>
</svg>
